<svg width="88" height="27" viewBox="0 0 88 27" fill="none" xmlns="http://www.w3.org/2000/svg">
<path d="M87.0317 16.0631C87.1416 16.0631 87.2315 16.103 87.3014 16.1829C87.3713 16.2628 87.4013 16.3577 87.3913 16.4676C87.3913 16.5774 87.3513 16.6673 87.2714 16.7372C87.1516 16.8471 87.0068 16.9719 86.837 17.1118C86.6672 17.2416 86.3426 17.4713 85.8632 17.8009C85.3838 18.1205 84.9144 18.3952 84.4549 18.6249C84.0055 18.8446 83.4811 19.0294 82.8819 19.1792C82.2926 19.329 81.7533 19.369 81.2639 19.2991C80.8045 19.2192 80.385 19.0494 80.0055 18.7897C79.6259 18.52 79.3263 18.1854 79.1066 17.7859C78.9368 17.4763 78.6821 17.3065 78.3425 17.2766C78.2127 17.2666 78.0679 17.2916 77.9081 17.3515C77.7483 17.4114 77.5435 17.5213 77.2938 17.6811C77.0541 17.8309 76.7695 18.0856 76.4399 18.4451C76.1103 18.7947 75.7658 19.2341 75.4062 19.7635C75.2963 19.9233 75.1465 19.9682 74.9568 19.8983C74.767 19.8284 74.6821 19.6936 74.7021 19.4938C74.762 18.7348 74.9118 17.766 75.1515 16.5874C75.0516 16.4376 75.0566 16.2878 75.1665 16.138L75.2714 15.9882C75.531 14.7098 75.8357 13.4663 76.1852 12.2578C76.4449 11.309 76.7046 10.485 76.9643 9.78589C77.2239 9.08676 77.4387 8.56741 77.6085 8.22783C77.7882 7.87826 77.968 7.59362 78.1478 7.37389C78.3375 7.15417 78.4674 7.02433 78.5373 6.98438C78.6172 6.94443 78.7021 6.90947 78.792 6.87951C78.9618 6.82957 79.1266 6.83456 79.2864 6.89449C79.4462 6.94443 79.581 7.03931 79.6909 7.17914C79.8906 7.41884 79.9955 7.74343 80.0055 8.15292C80.0255 8.55243 79.9705 8.9769 79.8407 9.42634C79.7208 9.87578 79.5361 10.3752 79.2864 10.9245C79.0367 11.4738 78.777 11.9882 78.5073 12.4676C78.2377 12.947 77.938 13.4463 77.6085 13.9657C77.2789 14.485 76.9992 14.9095 76.7695 15.2391C76.5398 15.5687 76.3151 15.8883 76.0953 16.1979C76.0953 16.1979 76.0854 16.2129 76.0654 16.2429L75.9755 16.3777C75.8357 17.1168 75.7558 17.5412 75.7358 17.6511C75.7258 17.721 75.7508 17.771 75.8107 17.8009C75.8806 17.8309 75.9405 17.8209 75.9905 17.771C76.8594 16.8621 77.6634 16.4376 78.4025 16.4975C78.6921 16.5175 78.9568 16.6074 79.1965 16.7672C79.4462 16.927 79.6409 17.1367 79.7808 17.3964C79.9505 17.696 80.1753 17.9457 80.4549 18.1455C80.7346 18.3452 81.0442 18.4701 81.3838 18.52C81.8032 18.5799 82.2776 18.54 82.807 18.4002C83.3463 18.2504 83.8207 18.0706 84.2302 17.8608C84.6397 17.6411 85.0642 17.3814 85.5036 17.0818C85.9431 16.7822 86.2327 16.5724 86.3725 16.4526C86.5224 16.3327 86.6472 16.2329 86.7471 16.153C86.827 16.0831 86.9219 16.0531 87.0317 16.0631ZM79.0167 7.62858C78.8269 7.62858 78.4924 8.1679 78.013 9.24656C77.5435 10.3152 77.134 11.4039 76.7845 12.5125C76.4449 13.6211 76.335 14.2104 76.4549 14.2803C76.5048 14.3103 76.6047 14.2254 76.7545 14.0256C76.9043 13.8259 77.0741 13.5562 77.2639 13.2166C77.4537 12.8671 77.6534 12.4725 77.8631 12.0331C78.0829 11.5936 78.2826 11.1492 78.4624 10.6998C78.6522 10.2403 78.812 9.80087 78.9418 9.38139C79.0716 8.96192 79.1515 8.60736 79.1815 8.31772C79.2115 8.01809 79.1765 7.80336 79.0766 7.67352C79.0467 7.64356 79.0267 7.62858 79.0167 7.62858Z" fill="white"/>
<path d="M75.8029 15.5088C75.9128 15.5088 76.0027 15.5488 76.0726 15.6287C76.1525 15.6986 76.1924 15.7885 76.1924 15.8983C76.1924 16.0082 76.1575 16.1031 76.0876 16.183C75.2186 17.0519 74.09 17.806 72.7018 18.4452C71.3135 19.0844 70.0151 19.404 68.8066 19.404C68.5469 19.404 68.2973 19.389 68.0576 19.359C67.5582 19.3191 67.0987 19.1693 66.6793 18.9096C66.2598 18.6399 65.9252 18.2904 65.6755 17.8609C65.6256 17.771 65.6156 17.6761 65.6455 17.5763C65.6655 17.4764 65.7205 17.3965 65.8103 17.3365C65.9002 17.2766 65.9951 17.2616 66.095 17.2916C66.2049 17.3116 66.2898 17.3665 66.3497 17.4564C66.6793 17.8959 67.1087 18.1755 67.6381 18.2954C68.1774 18.4052 68.6868 18.3253 69.1662 18.0557C69.3759 17.9358 69.5008 17.761 69.5407 17.5313C69.5906 17.2916 69.5307 17.0819 69.3609 16.9021C69.1911 16.7223 69.0014 16.5675 68.7916 16.4377C68.3722 16.188 68.0226 15.8684 67.7429 15.4789C67.703 15.4089 67.6431 15.369 67.5632 15.359C67.4833 15.349 67.4183 15.369 67.3684 15.4189L66.2298 16.4976C66.12 16.5975 65.9901 16.6274 65.8403 16.5875C65.6905 16.5475 65.6006 16.4526 65.5706 16.3028C65.5307 16.153 65.5706 16.0232 65.6905 15.9133L67.9826 13.756C68.2423 13.4464 68.537 13.1717 68.8665 12.932C68.9464 12.8721 69.0363 12.8471 69.1362 12.8571C69.2461 12.8671 69.336 12.9121 69.4059 12.992C69.4758 13.0719 69.5057 13.1667 69.4958 13.2766C69.4858 13.3765 69.4458 13.4614 69.3759 13.5313L68.5519 14.2953C68.4221 14.4451 68.3522 14.6199 68.3422 14.8197C68.3422 14.9795 68.4171 15.1343 68.5669 15.2841C68.7267 15.4239 68.9514 15.5937 69.2411 15.7935C69.5507 15.9732 69.8154 16.203 70.0351 16.4826C70.2049 16.7223 70.2998 16.992 70.3197 17.2916C70.3497 17.5812 70.2948 17.8559 70.1549 18.1156C70.115 18.1955 70.12 18.2704 70.1699 18.3403C70.2298 18.4102 70.3048 18.4352 70.3946 18.4152C72.3522 17.9458 74.0651 17.0169 75.5332 15.6287C75.6032 15.5488 75.693 15.5088 75.8029 15.5088Z" fill="white"/>
<path d="M66.3272 15.4637C66.4371 15.4538 66.532 15.4887 66.6119 15.5686C66.6918 15.6385 66.7317 15.7284 66.7317 15.8383C66.7317 15.9481 66.6967 16.043 66.6268 16.1229C66.0875 16.6822 65.4333 17.2415 64.6643 17.8008C63.9052 18.3502 63.0413 18.8346 62.0725 19.254C61.1037 19.6635 60.2298 19.8683 59.4508 19.8683H59.4208C58.5519 19.8982 57.8228 19.5986 57.2335 18.9694C56.9838 18.6897 56.834 18.3651 56.7841 17.9956C56.7641 17.8558 56.6842 17.7659 56.5444 17.7259C56.4145 17.686 56.2997 17.7159 56.1998 17.8158C55.0113 19.0543 54.0774 19.4688 53.3983 19.0593C53.1586 18.9194 53.0188 18.6947 52.9788 18.3851C52.9289 18.0655 52.9688 17.711 53.0987 17.3214C53.2285 16.9319 53.3633 16.5923 53.5032 16.3027C53.633 16.0131 53.7778 15.7234 53.9376 15.4338C53.9975 15.3439 54.0774 15.289 54.1773 15.269C54.2772 15.239 54.3721 15.249 54.462 15.299C54.5519 15.3489 54.6118 15.4238 54.6417 15.5237C54.6717 15.6236 54.6667 15.7234 54.6268 15.8233C54.3871 16.2328 54.1873 16.6373 54.0275 17.0368C53.8777 17.4363 53.7878 17.7459 53.7578 17.9656C53.7379 18.1754 53.7529 18.3152 53.8028 18.3851C54.0525 18.5349 54.5169 18.2952 55.1961 17.666C55.8852 17.0368 56.5294 16.2827 57.1287 15.4038C57.1886 15.3139 57.2635 15.259 57.3534 15.239C57.4532 15.2191 57.5481 15.234 57.638 15.284C57.7279 15.3239 57.7878 15.3888 57.8178 15.4787C57.8577 15.5686 57.8627 15.6585 57.8328 15.7484C57.7529 15.9781 57.678 16.2478 57.6081 16.5574C57.5481 16.857 57.5232 17.2016 57.5331 17.5911C57.5531 17.9806 57.643 18.2653 57.8028 18.445C58.2523 18.8945 58.7916 19.1092 59.4208 19.0892H59.4508C60.1499 19.0892 60.9439 18.8895 61.8328 18.49C62.7317 18.0905 63.5357 17.636 64.2448 17.1267C64.9639 16.6073 65.5632 16.093 66.0426 15.5836C66.1225 15.5037 66.2173 15.4637 66.3272 15.4637Z" fill="white"/>
<path d="M54.0409 15.5388C54.1508 15.5388 54.2407 15.5788 54.3106 15.6587C54.3905 15.7286 54.4305 15.8185 54.4305 15.9283C54.4305 16.0382 54.3955 16.1281 54.3256 16.198C53.6564 16.8272 52.8674 17.2067 51.9585 17.3366C51.0597 17.4564 50.2057 17.3066 49.3967 16.8871C49.2269 16.7972 49.0472 16.7673 48.8574 16.7972C48.6776 16.8172 48.5178 16.8971 48.378 17.0369C47.9086 17.5163 47.4392 18.0507 46.9697 18.6399C46.9198 18.6899 46.8898 18.7498 46.8799 18.8197C46.6102 20.4377 46.2007 22.0207 45.6514 23.5688C45.1121 25.1269 44.6027 26.0607 44.1233 26.3703C43.9835 26.4702 43.8336 26.5201 43.6738 26.5201C43.4641 26.5201 43.2893 26.4452 43.1495 26.2954C42.8199 25.9459 42.6751 25.5314 42.715 25.052C42.735 24.253 43.0646 23.2542 43.7038 22.0557C44.343 20.8672 45.142 19.6687 46.1008 18.4602C46.1408 18.4002 46.1657 18.3353 46.1757 18.2654C46.2357 17.9758 46.2706 17.6861 46.2806 17.3965C46.0409 17.8759 45.7113 18.2904 45.2918 18.6399C44.8724 18.9795 44.3979 19.2242 43.8686 19.374C43.6389 19.4439 43.4042 19.4489 43.1645 19.389C42.9348 19.3191 42.74 19.1943 42.5802 19.0145C42.0209 18.3853 42.0758 17.2367 42.745 15.5688C42.785 15.4689 42.8549 15.399 42.9547 15.359C43.0646 15.3091 43.1695 15.3041 43.2693 15.3441C43.3692 15.384 43.4391 15.4539 43.4791 15.5538C43.519 15.6537 43.519 15.7535 43.4791 15.8534C43.2494 16.4327 43.1046 16.9321 43.0446 17.3516C42.9847 17.771 42.9747 18.0507 43.0147 18.1905C43.0546 18.3203 43.1046 18.4252 43.1645 18.5051C43.3143 18.6449 43.4841 18.6799 43.6738 18.61C44.0634 18.5101 44.4129 18.3303 44.7225 18.0707C45.0421 17.801 45.2818 17.5363 45.4416 17.2766C45.6114 17.007 45.7612 16.7123 45.8911 16.3927C46.0209 16.0632 46.1008 15.8384 46.1308 15.7186C46.1607 15.5887 46.1807 15.4839 46.1907 15.404C46.2307 15.2042 46.3455 15.0944 46.5353 15.0744C46.735 15.0544 46.8749 15.1393 46.9548 15.3291C47.0546 15.6287 47.1046 15.9333 47.1046 16.2429C47.1146 16.4227 47.1995 16.5476 47.3593 16.6175C47.529 16.6774 47.6789 16.6424 47.8087 16.5126C48.0684 16.2429 48.3231 15.9932 48.5727 15.7635C48.7325 15.6237 48.8973 15.6187 49.0671 15.7485C49.5665 16.1081 50.0659 16.3528 50.5653 16.4826C51.0746 16.6025 51.4991 16.6374 51.8387 16.5875C52.1783 16.5376 52.5078 16.4327 52.8275 16.2729C53.157 16.1131 53.3768 15.9883 53.4866 15.8984C53.6065 15.7985 53.6964 15.7186 53.7563 15.6587C53.8362 15.5788 53.9311 15.5388 54.0409 15.5388ZM45.7563 20.4677C45.7762 20.4078 45.7662 20.3728 45.7263 20.3628C45.6963 20.3528 45.6664 20.3728 45.6364 20.4227C45.0072 21.3516 44.4978 22.2255 44.1083 23.0445C43.7188 23.8734 43.519 24.5476 43.509 25.067C43.4991 25.4864 43.559 25.7062 43.6888 25.7261C43.7587 25.7361 43.8336 25.6762 43.9135 25.5464C44.0034 25.4165 44.1433 25.1618 44.333 24.7823C44.9622 23.394 45.4367 21.9558 45.7563 20.4677Z" fill="white"/>
<path d="M42.7473 16.0182C42.8572 16.0182 42.9471 16.0581 43.017 16.1381C43.0869 16.218 43.1168 16.3128 43.1069 16.4227C43.1069 16.5326 43.0669 16.6224 42.987 16.6924C42.8971 16.7723 42.7773 16.8771 42.6275 17.007C42.4876 17.1268 42.2279 17.3266 41.8484 17.6062C41.4689 17.8859 41.0844 18.1406 40.6949 18.3703C40.3053 18.6 39.8459 18.8297 39.3166 19.0594C38.7872 19.2791 38.2779 19.4339 37.7885 19.5238C37.2991 19.6137 36.7847 19.6237 36.2454 19.5538C35.7061 19.4739 35.2117 19.2891 34.7622 18.9995C34.3428 18.7298 34.0082 18.3803 33.7585 17.9508C33.6886 17.8309 33.5787 17.766 33.4289 17.756C33.2891 17.746 33.1792 17.801 33.0993 17.9208C32.7497 18.4602 32.3652 18.9146 31.9457 19.2841C31.5363 19.6537 31.1567 19.8434 30.8072 19.8534H30.7922C30.6124 19.8434 30.4476 19.7885 30.2978 19.6886C30.138 19.5788 30.0231 19.4389 29.9532 19.2692C29.6536 18.5201 29.6985 17.791 30.0881 17.0819C30.4176 16.3927 30.8771 15.8085 31.4663 15.3291C32.0656 14.8397 32.7398 14.5051 33.4888 14.3253C33.6386 14.2854 33.7635 14.3203 33.8634 14.4302C33.9732 14.54 34.0032 14.6699 33.9532 14.8197C33.9133 14.9595 33.8184 15.0494 33.6686 15.0894C33.0394 15.2392 32.4751 15.5188 31.9757 15.9283C31.4763 16.3278 31.0868 16.8222 30.8072 17.4115C30.5275 17.8909 30.4776 18.3902 30.6573 18.9096C30.7173 19.0095 30.7622 19.0594 30.7922 19.0594C30.962 19.1693 31.2916 18.8597 31.7809 18.1306C32.2703 17.4015 32.7098 16.6125 33.0993 15.7635C33.1792 15.5837 33.319 15.5088 33.5188 15.5388C33.7086 15.5688 33.8184 15.6786 33.8484 15.8684C33.8584 15.9183 33.8683 15.9882 33.8783 16.0781C33.8983 16.158 33.9433 16.3128 34.0132 16.5425C34.0831 16.7623 34.163 16.972 34.2529 17.1718C34.3428 17.3715 34.4726 17.5862 34.6424 17.816C34.8122 18.0357 34.9969 18.2105 35.1967 18.3403C35.5762 18.59 36.0007 18.7398 36.4701 18.7898C36.9495 18.8397 37.404 18.8147 37.8334 18.7148C38.2729 18.615 38.7323 18.4602 39.2117 18.2504C39.6911 18.0307 40.1056 17.811 40.4552 17.5912C40.8047 17.3715 41.1493 17.1368 41.4889 16.8871C41.8284 16.6374 42.0582 16.4626 42.178 16.3628C42.3078 16.2529 42.4027 16.168 42.4627 16.1081C42.5426 16.0382 42.6374 16.0082 42.7473 16.0182Z" fill="white"/>
<path d="M18.6122 15.239C16.6945 18.1554 14.7969 19.6136 12.9192 19.6136C11.8506 19.6136 10.6521 19.3489 9.32372 18.8196C8.00536 18.2902 6.7719 17.6361 5.62333 16.857C4.47475 16.068 3.43105 15.2191 2.49222 14.3102C1.55339 13.4013 0.879229 12.5724 0.469738 11.8233C-0.0695907 10.8445 -0.144498 10.0555 0.245018 9.45623C0.714434 8.73713 1.7831 8.44249 3.45103 8.57233C4.47975 8.65223 5.60335 8.82702 6.82183 9.09668C8.05031 9.35636 9.3437 9.70093 10.702 10.1304C12.0603 10.5499 13.3038 10.9644 14.4324 11.3738C15.561 11.7734 16.8444 12.2478 18.2826 12.7971C18.4923 12.877 18.6971 12.877 18.8968 12.7971C19.1065 12.7172 19.2663 12.5774 19.3762 12.3776C19.8057 11.5486 20.2301 10.6448 20.6496 9.66597C21.958 6.60978 23.0516 3.48366 23.9305 0.287641C23.9805 0.107866 24.1003 0.0129842 24.2901 0.0029962C24.4799 -0.0169787 24.6097 0.0629221 24.6796 0.242698C24.7495 0.422475 24.7945 0.846946 24.8144 1.51611C24.8444 2.17529 24.8644 3.39378 24.8744 5.17157C24.9043 9.54612 24.9992 12.7721 25.159 14.8495C25.169 15.0293 25.2289 15.1891 25.3388 15.3289C25.4487 15.4588 25.5885 15.5536 25.7583 15.6136C26.8969 16.063 28.0754 16.3377 29.2939 16.4375C29.3937 16.4375 29.4836 16.4775 29.5635 16.5574C29.6434 16.6273 29.6834 16.7172 29.6834 16.8271C29.6934 16.9269 29.6584 17.0168 29.5785 17.0967C29.5086 17.1766 29.4187 17.2166 29.3089 17.2166C28.2102 17.1666 27.1465 16.9469 26.1178 16.5574C25.9281 16.4975 25.7533 16.5374 25.5935 16.6772C25.4437 16.8071 25.3837 16.9719 25.4137 17.1716C25.5835 18.1604 25.7882 18.6997 26.0279 18.7896C26.1278 18.8296 26.2027 18.8995 26.2527 18.9994C26.3026 19.0892 26.3076 19.1841 26.2676 19.284C26.2377 19.3839 26.1728 19.4588 26.0729 19.5087C25.983 19.5587 25.8881 19.5687 25.7882 19.5387C25.209 19.3489 24.7945 18.3402 24.5448 16.5125C24.4948 16.1729 24.3051 15.9432 23.9755 15.8233C23.1965 15.5337 22.1128 15.1192 20.7245 14.5799C20.6446 14.5599 20.5298 14.5349 20.38 14.505C20.2302 14.465 20.1253 14.44 20.0654 14.43C20.0054 14.4201 19.9155 14.4101 19.7957 14.4001C19.6858 14.3801 19.6009 14.3801 19.541 14.4001C19.4911 14.4101 19.4162 14.435 19.3163 14.475C19.2264 14.505 19.1465 14.5549 19.0766 14.6248C19.0167 14.6847 18.9418 14.7696 18.8519 14.8795C18.772 14.9794 18.6921 15.0992 18.6122 15.239ZM2.73192 9.3214C1.75314 9.3214 1.1439 9.50617 0.904197 9.87571C0.684471 10.2153 0.769365 10.7396 1.15888 11.4488C1.56837 12.2078 2.23754 13.0268 3.16638 13.9057C4.09523 14.7746 5.10897 15.5736 6.2076 16.3027C7.31622 17.0218 8.47977 17.6261 9.69826 18.1155C10.9167 18.5949 11.9904 18.8346 12.9192 18.8346C14.5672 18.8346 16.2751 17.4463 18.0429 14.6697C18.1927 14.44 18.2226 14.1953 18.1328 13.9357C18.0529 13.666 17.8831 13.4812 17.6234 13.3813C14.6771 12.2528 12.0304 11.3339 9.68327 10.6248C7.33619 9.91566 5.2388 9.49119 3.3911 9.35136C3.16139 9.33139 2.94166 9.3214 2.73192 9.3214ZM23.7807 3.58354C22.722 6.95934 21.3737 10.2153 19.7358 13.3514L20.335 13.5911C21.7233 14.1304 22.727 14.5149 23.3463 14.7447C23.586 14.8345 23.8107 14.8046 24.0204 14.6548C24.2302 14.495 24.3251 14.2852 24.3051 14.0255C24.1852 12.0979 24.1103 9.14662 24.0804 5.17157C24.0804 4.48242 24.0754 3.97805 24.0654 3.65845C24.0654 3.54858 24.0454 3.46868 24.0055 3.41875C23.9755 3.36881 23.9355 3.35882 23.8856 3.38878C23.8457 3.40876 23.8107 3.47368 23.7807 3.58354Z" fill="white"/>
</svg>
