<svg xmlns="http://www.w3.org/2000/svg" viewBox="0 0 640 640" role="img" aria-labelledby="title desc">
  <title id="title">Prahari counter-UAS operations interface</title>
  <desc id="desc">A code-authored spatial contact picture with a prioritised action queue.</desc>
  <rect width="640" height="640" fill="#0a0c0d"/>
  <g fill="none" stroke="#e8e9e5" stroke-opacity=".055">
    <path d="M0 64h640M0 128h640M0 192h640M0 256h640M0 320h640M0 384h640M0 448h640M0 512h640M0 576h640"/>
    <path d="M64 0v640M128 0v640M192 0v640M256 0v640M320 0v640M384 0v640M448 0v640M512 0v640M576 0v640"/>
  </g>
  <g font-family="ui-monospace,SFMono-Regular,Menlo,monospace">
    <text x="40" y="52" fill="#e8e9e5" font-size="13" font-weight="700" letter-spacing="2">PRAHARI / OPS</text>
    <text x="600" y="52" fill="#8e9493" font-size="10" text-anchor="end" letter-spacing="1">3 SOURCES · LIVE</text>
    <line x1="40" y1="72" x2="600" y2="72" stroke="#ffffff" stroke-opacity=".16"/>
    <rect x="40" y="100" width="374" height="388" rx="8" fill="#0d1011" stroke="#ffffff" stroke-opacity=".14"/>
    <circle cx="214" cy="292" r="128" fill="#6d8da3" fill-opacity=".055" stroke="#6d8da3" stroke-opacity=".22"/>
    <circle cx="214" cy="292" r="72" fill="none" stroke="#6d8da3" stroke-opacity=".2"/>
    <path d="M214 164v256M86 292h256" stroke="#ffffff" stroke-opacity=".07"/>
    <path d="M214 292L305 201" stroke="#d99a43" stroke-opacity=".44" stroke-dasharray="4 6"/>
    <circle cx="286" cy="224" r="20" fill="#ef5b4c" fill-opacity=".12" stroke="#ef5b4c" stroke-width="2"/>
    <circle cx="286" cy="224" r="6" fill="#ef5b4c"/>
    <text x="311" y="220" fill="#e8e9e5" font-size="11" font-weight="700">UA-047</text>
    <text x="311" y="237" fill="#ef5b4c" font-size="9" letter-spacing="1">ACT NOW</text>
    <circle cx="148" cy="342" r="5" fill="#d99a43"/><text x="160" y="346" fill="#9ba09f" font-size="9">UA-039</text>
    <circle cx="232" cy="386" r="5" fill="#6ba394"/><text x="244" y="390" fill="#9ba09f" font-size="9">FR-012</text>
    <text x="58" y="123" fill="#666d6b" font-size="9" letter-spacing="1">14 CORPS / AREA OF RESPONSIBILITY</text>
    <g transform="translate(432 100)">
      <rect width="168" height="388" rx="8" fill="#101315" stroke="#ffffff" stroke-opacity=".14"/>
      <text x="18" y="30" fill="#8e9493" font-size="9" letter-spacing="1.5">CONTACTS / 05</text>
      <line x1="18" y1="48" x2="150" y2="48" stroke="#ffffff" stroke-opacity=".12"/>
      <text x="18" y="78" fill="#ef5b4c" font-size="9" letter-spacing="1.3">ACT NOW / 02</text>
      <rect x="0" y="96" width="3" height="76" fill="#ef5b4c"/>
      <text x="18" y="122" fill="#e8e9e5" font-size="15" font-weight="700">UA-047</text><text x="148" y="122" fill="#8e9493" font-size="9" text-anchor="end">1.8 KM</text>
      <text x="18" y="146" fill="#8e9493" font-size="9">RF + RADAR · 87%</text>
      <text x="18" y="204" fill="#d99a43" font-size="9" letter-spacing="1.3">TRACKING / 02</text>
      <rect x="0" y="222" width="3" height="76" fill="#d99a43"/>
      <text x="18" y="248" fill="#e8e9e5" font-size="15" font-weight="700">UA-039</text><text x="148" y="248" fill="#8e9493" font-size="9" text-anchor="end">5.1 KM</text>
      <text x="18" y="272" fill="#8e9493" font-size="9">RADAR + OPT · 62%</text>
      <text x="18" y="332" fill="#5f6664" font-size="9" letter-spacing="1.3">CLEARED / 01</text>
      <text x="18" y="358" fill="#8e9493" font-size="14" font-weight="700">UA-033</text><text x="148" y="358" fill="#616765" font-size="9" text-anchor="end">8.7 KM</text>
    </g>
    <line x1="40" y1="520" x2="600" y2="520" stroke="#ffffff" stroke-opacity=".16"/>
    <text x="40" y="556" fill="#ef5b4c" font-size="10" letter-spacing="2">CONFIDENCE BEFORE CONSEQUENCE</text>
    <text x="40" y="592" fill="#e8e9e5" font-family="Arial,sans-serif" font-size="29" font-weight="700" letter-spacing="-1">One contact. All the evidence.</text>
  </g>
</svg>
